<?xml version="1.0" standalone="no"?><!DOCTYPE svg PUBLIC "-//W3C//DTD SVG 1.1//EN" "http://www.w3.org/Graphics/SVG/1.1/DTD/svg11.dtd"><svg height="1024" node-id="1" sillyvg="true" template-height="1024" template-width="1024" version="1.1" viewBox="0 0 1024 1024" width="1024" xmlns="http://www.w3.org/2000/svg" xmlns:xlink="http://www.w3.org/1999/xlink"><defs node-id="57"><linearGradient gradientUnits="objectBoundingBox" id="SVGID_1_" node-id="14" spreadMethod="pad" x1="530.4201" x2="530.4201" y1="778.8854" y2="602.9269"><stop offset="0" stop-color="#e9705e" stop-opacity="0.8"></stop><stop offset="0.6685" stop-color="#ff9f8e" stop-opacity="0"></stop></linearGradient><linearGradient gradientUnits="objectBoundingBox" id="SVGID_2_" node-id="52" spreadMethod="pad" x1="568.5554" x2="481.3489" y1="570.0708" y2="519.7222"><stop offset="0.2403" stop-color="#dd5543" stop-opacity="0"></stop><stop offset="1" stop-color="#dd5543" stop-opacity="0.6"></stop></linearGradient></defs><g node-id="185"><path d="M 1024.50 512.40 L 1024.30 528.10 L 1023.60 543.60 L 1022.40 558.90 L 1020.80 574.10 L 1018.80 589.10 L 1016.40 603.90 L 1012.80 621.70 L 1008.70 639.20 L 1004.00 656.50 L 998.70 673.40 L 992.90 690.10 L 986.40 706.60 L 979.40 722.80 L 972.00 738.70 L 963.90 754.30 L 955.40 769.50 L 946.30 784.50 L 936.80 799.10 L 926.80 813.40 L 916.30 827.20 L 905.40 840.80 L 894.70 853.30 L 874.50 874.70 L 856.40 891.90 L 838.00 907.80 L 819.60 922.30 L 798.90 937.10 L 785.50 945.80 L 771.80 954.10 L 757.80 962.00 L 743.50 969.50 L 727.80 977.20 L 702.80 987.90 L 687.80 993.70 L 672.60 998.90 L 657.20 1003.80 L 641.60 1008.10 L 625.80 1011.90 L 609.80 1015.20 L 593.60 1018.10 L 577.30 1020.40 L 560.80 1022.20 L 544.20 1023.50 L 515.00 1024.50 L 492.60 1024.10 L 473.30 1023.00 L 459.70 1021.80 L 444.40 1020.00 L 429.40 1017.80 L 414.50 1015.20 L 399.70 1012.10 L 385.20 1008.60 L 370.70 1004.60 L 356.40 1000.30 L 342.40 995.50 L 328.50 990.40 L 314.80 984.90 L 300.90 978.80 L 281.60 969.50 L 268.50 962.70 L 256.60 956.00 L 233.50 941.80 L 211.30 926.30 L 190.90 910.70 L 178.80 900.70 L 158.40 882.20 L 141.60 865.40 L 129.90 852.60 L 118.60 839.40 L 107.70 825.90 L 97.30 812.10 L 87.40 797.90 L 78.00 783.40 L 69.00 768.40 L 60.50 753.20 L 52.60 737.70 L 45.20 721.90 L 38.30 705.80 L 31.90 689.30 L 26.10 672.70 L 20.80 655.80 L 16.20 638.70 L 12.10 621.30 L 8.60 603.50 L 6.10 588.80 L 4.10 573.80 L 2.60 558.80 L 1.40 543.50 L 0.70 528.10 L 0.50 512.40 L 0.70 496.70 L 1.50 481.10 L 2.60 465.60 L 4.20 450.40 L 6.30 435.30 L 8.70 420.40 L 12.30 402.50 L 16.50 384.90 L 21.30 367.60 L 26.60 350.60 L 32.50 333.80 L 39.10 317.20 L 46.10 300.90 L 53.70 285.00 L 61.80 269.40 L 70.40 254.00 L 79.60 239.00 L 89.20 224.40 L 99.30 210.10 L 109.90 196.20 L 120.90 182.60 L 132.40 169.40 L 144.30 156.70 L 156.70 144.30 L 169.40 132.40 L 182.60 120.90 L 196.20 109.80 L 210.10 99.30 L 224.40 89.20 L 239.00 79.60 L 254.10 70.40 L 269.40 61.80 L 285.00 53.70 L 301.00 46.10 L 317.20 39.00 L 333.90 32.50 L 350.60 26.60 L 367.70 21.30 L 385.00 16.50 L 402.60 12.30 L 420.50 8.70 L 435.40 6.30 L 450.50 4.20 L 465.70 2.60 L 481.10 1.50 L 496.70 0.70 L 512.50 0.50 L 528.30 0.70 L 543.90 1.50 L 559.30 2.60 L 574.50 4.20 L 589.60 6.30 L 604.50 8.70 L 622.40 12.30 L 640.10 16.50 L 657.40 21.30 L 674.40 26.60 L 691.20 32.50 L 707.80 39.00 L 724.10 46.10 L 740.00 53.70 L 755.60 61.80 L 770.90 70.40 L 786.00 79.60 L 800.60 89.20 L 814.90 99.30 L 828.80 109.80 L 842.40 120.90 L 855.60 132.40 L 868.30 144.30 L 880.70 156.70 L 892.60 169.40 L 904.10 182.60 L 915.20 196.20 L 925.70 210.10 L 935.80 224.40 L 945.40 239.00 L 954.60 254.00 L 963.20 269.40 L 971.30 285.00 L 978.90 300.90 L 985.90 317.20 L 992.50 333.80 L 998.40 350.60 L 1003.70 367.60 L 1008.50 384.90 L 1012.70 402.50 L 1016.30 420.40 L 1018.70 435.30 L 1020.80 450.40 L 1022.40 465.60 L 1023.50 481.10 L 1024.30 496.70 L 1024.50 512.40 Z" fill="#756eff" fill-rule="nonzero" group-id="1" node-id="74" stroke="none" target-height="1024" target-width="1024" target-x="0.5" target-y="0.5"></path></g><path d="M 659.80 945.30 L 652.40 941.00 L 636.50 933.20 L 621.00 927.30 L 612.70 924.80 L 603.70 922.50 L 593.90 920.60 L 583.20 919.10 L 568.80 918.00 L 560.60 917.90 L 551.20 918.40 L 538.10 920.00 L 523.60 923.20 L 510.60 927.30 L 501.50 931.00 L 493.50 934.80 L 486.10 938.80 L 479.80 942.60 L 469.50 949.70 L 452.50 936.60 L 437.80 923.40 L 424.50 909.60 L 413.70 896.00 L 408.80 888.90 L 404.60 882.00 L 401.00 875.30 L 398.00 868.80 L 395.30 862.00 L 393.40 855.50 L 392.00 849.20 L 391.30 843.20 L 391.10 838.30 L 391.30 833.50 L 391.90 829.00 L 392.90 824.60 L 395.80 817.20 L 400.20 809.90 L 403.10 806.30 L 406.70 802.60 L 411.30 798.60 L 411.90 787.90 L 412.20 776.10 L 412.00 764.00 L 411.30 750.90 L 409.90 737.10 L 408.30 726.30 L 404.00 704.60 L 401.40 694.30 L 398.60 684.90 L 392.70 667.70 L 629.50 643.50 L 623.30 662.70 L 616.40 686.40 L 610.70 709.00 L 607.10 725.00 L 604.90 736.00 L 602.20 754.20 L 601.20 767.00 L 601.40 774.50 L 602.00 779.60 L 602.80 782.90 L 604.70 788.10 L 606.80 793.00 L 609.30 797.70 L 612.10 802.10 L 616.20 807.60 L 620.70 812.70 L 625.50 817.30 L 635.80 825.50 L 641.00 829.00 L 648.90 833.70 L 656.20 837.40 L 659.80 945.30 Z" fill="#ff9f8e" fill-rule="nonzero" node-id="77" stroke="none" target-height="306.2" target-width="268.69998" target-x="391.1" target-y="643.5"></path><path d="M 616.40 686.40 L 610.10 711.40 L 604.90 736.00 L 602.10 754.20 L 601.20 767.00 L 588.10 772.40 L 573.40 777.60 L 559.00 781.60 L 551.20 783.50 L 542.40 785.20 L 533.30 786.50 L 523.40 787.30 L 516.60 787.50 L 501.80 786.90 L 493.20 785.80 L 484.70 784.30 L 476.50 782.40 L 468.50 780.00 L 460.60 777.30 L 452.90 774.20 L 445.40 770.70 L 438.10 766.90 L 428.70 761.30 L 419.70 755.20 L 411.10 748.70 L 409.90 737.10 L 408.30 726.30 L 404.30 705.90 L 616.40 686.40 Z" fill="#f5575d" fill-rule="nonzero" node-id="79" stroke="none" target-height="101.099976" target-width="212.10004" target-x="404.3" target-y="686.4"></path><g node-id="186"><path d="M 278.90 486.00 L 283.00 486.80 L 286.90 488.20 L 290.50 490.10 L 294.00 492.60 L 297.20 495.50 L 300.10 498.90 L 302.80 502.70 L 305.30 507.10 L 307.30 511.60 L 309.00 516.50 L 310.50 521.70 L 311.60 527.40 L 312.20 533.00 L 312.50 538.80 L 312.40 544.90 L 311.90 551.20 L 310.90 557.50 L 309.50 563.50 L 307.90 569.10 L 305.90 574.40 L 303.40 579.60 L 300.80 584.30 L 298.00 588.60 L 294.90 592.50 L 291.50 596.20 L 287.90 599.30 L 284.30 601.80 L 280.50 603.90 L 276.50 605.50 L 272.50 606.50 L 268.50 606.90 L 264.30 606.80 L 260.20 605.90 L 256.40 604.60 L 252.70 602.60 L 249.20 600.10 L 246.10 597.20 L 243.10 593.80 L 240.50 590.00 L 238.00 585.60 L 235.90 581.10 L 234.20 576.20 L 232.80 571.00 L 231.70 565.40 L 231.00 559.80 L 230.70 553.90 L 230.80 547.80 L 231.40 541.50 L 233.30 531.00 L 236.30 521.10 L 240.40 512.00 L 242.90 507.70 L 248.30 500.20 L 251.90 496.40 L 255.60 493.30 L 259.20 490.70 L 263.00 488.70 L 267.00 487.10 L 271.00 486.20 L 274.90 485.80 L 278.90 486.00 Z" fill="#ff9f8e" fill-rule="nonzero" group-id="2" node-id="83" stroke="none" target-height="121.10004" target-width="81.8" target-x="230.7" target-y="485.8"></path></g><path d="M 300.40 565.30 L 296.70 556.50 L 294.50 552.20 L 292.00 548.10 L 286.10 540.60 L 282.70 537.30 L 279.00 534.30 L 275.00 531.70 L 270.40 529.10 L 265.40 527.10 L 262.70 526.50 L 258.00 526.50 L 254.50 527.90 L 252.50 529.40 L 249.60 533.10 L 248.20 536.40 L 247.50 539.80 L 247.20 546.60 L 248.20 539.90 L 249.30 536.70 L 250.80 533.90 L 252.10 532.20 L 255.50 529.70 L 257.40 529.10 L 259.40 528.90 L 261.30 529.20 L 264.20 530.10 L 267.10 531.60 L 272.60 535.20 L 276.00 538.00 L 279.00 541.00 L 281.70 544.30 L 286.20 551.50 L 288.10 555.40 L 290.40 561.50 L 292.10 567.70 L 293.20 569.60 L 295.10 570.80 L 296.10 571.00 L 298.40 570.40 L 299.30 569.80 L 300.40 567.90 L 300.60 566.90 L 300.40 565.30 Z" fill="#152140" fill-rule="nonzero" node-id="86" stroke="none" target-height="44.5" target-width="53.40001" target-x="247.2" target-y="526.5"></path><path d="M 824.10 539.90 L 823.80 547.10 L 823.00 553.90 L 821.60 560.50 L 819.70 566.90 L 817.40 572.80 L 814.60 578.40 L 811.40 583.60 L 807.80 588.30 L 803.90 592.50 L 800.70 595.30 L 793.90 599.90 L 786.60 603.20 L 782.80 604.20 L 778.80 604.80 L 774.70 605.00 L 770.70 604.80 L 766.70 604.20 L 762.90 603.20 L 755.50 599.90 L 748.80 595.30 L 745.60 592.50 L 741.70 588.30 L 738.10 583.60 L 734.90 578.40 L 732.10 572.80 L 729.80 566.90 L 727.80 560.50 L 726.50 553.90 L 725.60 547.10 L 725.30 539.90 L 725.60 532.70 L 726.50 525.80 L 727.80 519.30 L 729.80 512.90 L 732.10 506.90 L 734.90 501.40 L 738.10 496.10 L 741.70 491.40 L 745.60 487.30 L 748.80 484.40 L 755.50 479.80 L 762.90 476.60 L 766.70 475.60 L 770.60 474.90 L 774.70 474.70 L 778.80 474.90 L 782.80 475.60 L 786.60 476.60 L 793.90 479.80 L 800.70 484.40 L 803.90 487.30 L 807.80 491.40 L 811.40 496.10 L 814.60 501.40 L 817.40 506.90 L 819.70 512.90 L 821.60 519.30 L 823.00 525.80 L 823.80 532.70 L 824.10 539.90 Z" fill="#ff9f8e" fill-rule="nonzero" node-id="88" stroke="none" target-height="130.29999" target-width="98.79999" target-x="725.3" target-y="474.7"></path><path d="M 738.70 562.30 L 741.70 552.60 L 743.70 547.80 L 746.10 543.30 L 751.70 534.70 L 755.00 530.80 L 758.60 527.30 L 762.70 524.10 L 767.40 521.00 L 772.50 518.40 L 775.30 517.50 L 778.30 517.00 L 780.30 517.10 L 784.20 518.20 L 786.50 519.70 L 788.40 521.40 L 789.90 523.40 L 792.10 527.90 L 793.40 534.00 L 793.70 537.60 L 793.10 534.00 L 792.00 530.50 L 790.60 527.20 L 788.70 524.30 L 787.10 522.70 L 783.30 520.30 L 781.20 519.80 L 779.10 519.80 L 777.00 520.20 L 774.00 521.50 L 771.00 523.30 L 765.50 527.70 L 762.20 531.00 L 759.30 534.50 L 756.70 538.30 L 752.50 546.40 L 750.80 550.70 L 748.90 557.40 L 747.60 564.10 L 746.70 566.30 L 744.80 567.70 L 743.70 568.00 L 741.20 567.70 L 740.20 567.10 L 738.80 565.20 L 738.50 564.10 L 738.70 562.30 Z" fill="#152140" fill-rule="nonzero" node-id="90" stroke="none" target-height="51" target-width="55.200012" target-x="738.5" target-y="517"></path><path d="M 728.90 483.60 L 734.80 477.60 L 742.10 468.30 L 745.70 462.60 L 749.30 455.70 L 753.30 445.70 L 756.10 434.80 L 757.30 425.50 L 757.60 418.90 L 757.40 413.20 L 756.30 403.70 L 758.60 403.20 L 762.00 401.90 L 765.60 399.00 L 767.10 397.20 L 768.90 393.70 L 769.60 391.10 L 769.80 386.50 L 775.10 386.20 L 778.90 385.00 L 780.60 383.90 L 781.90 382.30 L 782.80 379.20 L 782.00 375.00 L 781.00 372.60 L 778.50 368.60 L 774.50 364.20 L 770.00 361.10 L 766.30 359.50 L 754.00 356.10 L 749.60 354.50 L 744.70 352.10 L 741.90 350.30 L 735.60 345.00 L 732.20 341.30 L 729.00 337.00 L 725.70 331.60 L 736.10 332.10 L 753.90 332.30 L 770.00 331.60 L 780.30 330.30 L 785.40 328.70 L 787.40 327.50 L 788.80 326.20 L 789.80 324.70 L 790.60 322.40 L 790.90 320.10 L 790.30 315.80 L 784.00 318.00 L 775.40 320.00 L 768.80 320.80 L 762.70 321.10 L 757.10 320.80 L 751.50 320.10 L 741.30 317.80 L 720.40 311.00 L 714.00 309.30 L 705.90 308.10 L 696.30 307.90 L 685.30 309.40 L 679.60 310.70 L 673.30 312.70 L 666.40 315.30 L 659.70 318.40 L 652.30 322.20 L 644.30 327.00 L 646.30 321.40 L 647.80 318.30 L 652.10 311.70 L 655.00 308.40 L 658.30 305.40 L 662.00 302.80 L 666.20 300.70 L 671.20 298.80 L 676.80 297.30 L 691.50 294.90 L 713.00 293.10 L 738.00 292.40 L 761.90 293.00 L 747.40 286.80 L 734.60 282.70 L 726.80 280.60 L 715.70 278.50 L 709.30 277.80 L 703.00 277.50 L 696.20 277.80 L 688.90 278.60 L 683.20 279.80 L 673.00 282.80 L 665.80 285.70 L 659.60 288.90 L 653.80 292.40 L 649.00 295.80 L 652.80 290.60 L 658.00 284.50 L 661.90 280.60 L 666.40 276.60 L 671.70 272.60 L 677.20 269.10 L 682.50 266.10 L 687.80 263.70 L 698.40 259.90 L 710.80 257.30 L 717.50 256.50 L 723.80 256.20 L 736.80 256.80 L 729.80 252.70 L 721.50 249.30 L 715.70 247.80 L 710.00 246.90 L 704.60 246.60 L 699.20 246.70 L 689.10 248.10 L 682.00 250.00 L 675.90 252.20 L 670.20 254.60 L 659.70 260.50 L 666.90 251.70 L 671.30 247.30 L 676.40 242.80 L 682.00 238.50 L 688.50 234.50 L 696.50 230.10 L 701.50 227.80 L 707.40 225.60 L 715.90 223.30 L 725.60 222.20 L 730.80 222.30 L 736.40 222.80 L 742.60 224.10 L 748.00 225.80 L 757.20 229.90 L 763.80 234.00 L 762.30 230.30 L 759.00 224.60 L 756.20 221.20 L 753.60 218.70 L 750.10 216.20 L 746.40 214.20 L 742.40 212.70 L 738.00 211.60 L 733.50 210.90 L 723.90 210.70 L 718.70 211.30 L 712.00 212.50 L 705.10 214.30 L 698.00 216.70 L 691.10 219.50 L 684.30 222.90 L 677.70 226.60 L 671.40 230.80 L 665.50 235.30 L 660.10 240.10 L 654.70 245.50 L 650.30 250.90 L 646.30 256.40 L 643.10 261.40 L 638.30 270.70 L 637.90 264.80 L 636.40 255.20 L 634.60 248.80 L 632.60 243.90 L 630.40 239.50 L 625.40 232.00 L 621.90 228.00 L 618.00 224.40 L 613.80 221.00 L 609.30 217.90 L 599.40 212.60 L 594.00 210.30 L 586.60 207.70 L 578.90 205.60 L 570.70 203.90 L 562.50 202.60 L 554.10 201.70 L 545.50 201.20 L 528.30 201.20 L 511.30 202.60 L 503.10 203.70 L 487.40 206.80 L 473.20 210.80 L 399.00 234.80 L 389.90 237.00 L 382.90 237.60 L 376.50 236.80 L 372.70 235.70 L 365.80 232.90 L 356.50 227.60 L 345.80 220.40 L 341.80 218.60 L 340.70 218.70 L 339.80 219.10 L 339.20 220.10 L 338.90 221.30 L 339.40 227.00 L 339.10 228.10 L 338.40 228.90 L 336.20 229.30 L 334.50 228.80 L 332.10 227.70 L 328.00 224.30 L 325.40 220.50 L 324.40 218.00 L 323.90 215.70 L 323.80 207.40 L 323.50 207.00 L 323.00 207.10 L 320.90 209.10 L 317.40 215.30 L 315.90 219.30 L 314.30 225.80 L 314.10 232.30 L 314.60 236.70 L 316.10 243.10 L 319.00 250.60 L 324.00 259.10 L 321.50 260.40 L 317.90 261.50 L 315.60 261.60 L 312.20 260.70 L 310.30 259.60 L 308.60 258.00 L 305.70 254.10 L 303.20 247.80 L 302.30 243.60 L 302.00 239.40 L 302.10 235.40 L 302.70 231.80 L 304.70 226.00 L 307.70 220.50 L 308.20 219.10 L 307.50 219.20 L 305.60 220.40 L 300.60 224.90 L 294.90 232.10 L 292.30 236.50 L 290.10 241.40 L 288.60 246.00 L 287.80 250.40 L 287.40 254.70 L 287.80 263.30 L 290.00 273.10 L 293.90 283.10 L 298.90 292.10 L 295.50 293.30 L 292.80 293.80 L 288.60 293.70 L 286.30 293.10 L 284.40 292.00 L 281.10 288.80 L 279.70 286.50 L 278.20 283.20 L 277.30 279.40 L 276.70 274.90 L 276.80 270.30 L 277.50 265.40 L 278.90 260.00 L 276.50 264.20 L 272.60 272.60 L 270.70 280.30 L 270.30 284.20 L 270.40 288.30 L 271.00 292.60 L 272.20 296.60 L 273.80 300.20 L 275.80 303.50 L 278.20 306.60 L 283.60 312.00 L 300.90 325.20 L 303.40 327.40 L 307.00 331.60 L 308.30 334.00 L 309.00 336.40 L 309.10 339.10 L 308.70 341.70 L 307.70 344.40 L 306.10 347.00 L 301.90 351.60 L 296.30 355.50 L 290.00 358.10 L 286.70 358.90 L 283.50 359.20 L 280.30 359.10 L 277.00 358.40 L 274.10 357.20 L 271.30 355.60 L 268.80 353.60 L 264.40 348.70 L 261.70 344.30 L 259.50 339.70 L 257.60 334.80 L 255.30 325.40 L 254.70 321.40 L 254.50 315.80 L 254.80 310.90 L 256.60 302.20 L 258.90 295.80 L 252.50 302.90 L 248.20 309.80 L 246.40 314.00 L 244.70 319.00 L 243.50 324.10 L 242.80 329.40 L 242.60 334.80 L 242.90 340.00 L 243.70 345.20 L 244.90 350.30 L 246.60 355.00 L 248.60 359.30 L 252.60 365.20 L 257.50 369.80 L 260.90 371.90 L 264.50 373.50 L 268.40 374.70 L 276.40 375.80 L 280.50 375.90 L 286.60 375.50 L 298.00 373.60 L 312.80 369.30 L 301.50 372.00 L 296.20 373.60 L 289.80 375.90 L 283.30 378.70 L 276.30 382.20 L 267.20 388.10 L 259.50 394.40 L 254.30 400.30 L 252.70 403.50 L 252.90 405.60 L 253.50 406.40 L 256.20 407.60 L 261.90 408.10 L 273.70 407.90 L 275.10 408.10 L 276.10 408.80 L 275.90 409.50 L 274.80 410.50 L 264.40 416.40 L 261.90 418.80 L 261.20 420.90 L 261.60 422.20 L 262.60 423.20 L 270.20 427.40 L 272.50 429.00 L 274.70 431.10 L 276.70 433.70 L 278.10 436.20 L 279.00 438.90 L 279.90 443.00 L 280.80 454.40 L 281.40 458.20 L 284.00 465.60 L 287.90 472.20 L 293.50 479.00 L 297.40 482.80 L 306.40 490.20 L 312.40 494.40 L 728.90 483.60 Z" fill="#152140" fill-rule="nonzero" node-id="92" stroke="none" target-height="293.2" target-width="548.30005" target-x="242.6" target-y="201.2"></path><path d="M 362.60 326.00 L 356.50 334.00 L 353.50 338.70 L 347.20 351.10 L 343.70 359.60 L 340.10 369.40 L 335.10 384.90 L 323.70 424.70 L 305.50 493.40 L 300.90 512.00 L 295.60 537.20 L 293.20 553.80 L 292.60 561.60 L 292.50 568.70 L 292.80 575.20 L 293.70 583.40 L 296.40 598.90 L 298.60 608.50 L 301.80 619.80 L 307.20 635.60 L 314.60 652.70 L 319.10 661.40 L 324.20 670.30 L 329.70 678.90 L 336.00 687.50 L 343.00 696.10 L 349.30 702.90 L 355.80 709.30 L 362.60 715.40 L 369.70 721.20 L 377.20 726.80 L 386.90 733.20 L 396.90 739.10 L 407.20 744.50 L 418.00 749.40 L 429.00 753.80 L 440.20 757.70 L 451.70 761.10 L 463.40 764.00 L 475.20 766.40 L 487.10 768.20 L 499.10 769.60 L 511.20 770.40 L 523.40 770.70 L 535.40 770.50 L 547.50 769.80 L 559.50 768.60 L 571.40 766.80 L 583.20 764.60 L 594.70 761.80 L 606.10 758.50 L 617.30 754.60 L 628.20 750.20 L 638.80 745.30 L 649.00 739.90 L 657.00 735.20 L 664.70 730.10 L 672.10 724.70 L 679.30 718.90 L 686.10 712.90 L 692.40 706.70 L 698.10 700.60 L 708.10 688.30 L 714.10 679.70 L 719.40 671.40 L 723.90 663.20 L 731.70 646.90 L 738.70 628.30 L 741.60 618.80 L 745.70 603.10 L 748.30 590.60 L 750.20 578.30 L 751.60 566.10 L 752.30 554.10 L 752.40 542.00 L 752.10 530.10 L 751.20 518.40 L 749.90 506.90 L 748.00 495.40 L 745.80 484.10 L 743.30 473.10 L 740.30 462.20 L 735.80 447.90 L 730.80 434.10 L 725.40 420.70 L 719.50 407.60 L 713.30 395.00 L 706.90 383.00 L 700.20 371.20 L 686.90 349.80 L 676.60 334.80 L 666.90 321.70 L 649.00 299.40 L 644.00 293.90 L 638.60 288.90 L 632.80 284.40 L 626.80 280.30 L 620.40 276.70 L 613.80 273.60 L 607.00 271.00 L 599.90 268.90 L 592.60 267.40 L 579.70 265.60 L 565.60 264.10 L 556.00 263.50 L 535.40 263.10 L 524.80 263.50 L 513.90 264.30 L 502.50 265.50 L 491.30 267.20 L 479.60 269.30 L 467.60 272.10 L 447.20 277.50 L 436.60 280.70 L 418.40 287.30 L 403.70 294.20 L 396.60 298.10 L 389.50 302.60 L 382.40 307.70 L 375.70 313.10 L 369.10 319.20 L 362.60 326.00 Z" fill="#ff9f8e" fill-rule="nonzero" node-id="94" stroke="none" target-height="507.6" target-width="459.90002" target-x="292.5" target-y="263.1"></path><path d="M 624.30 690.90 L 623.90 698.20 L 623.00 705.30 L 621.50 712.10 L 619.50 718.70 L 616.90 725.20 L 613.80 731.30 L 610.20 737.20 L 606.10 742.90 L 601.70 748.20 L 596.80 753.10 L 591.50 757.70 L 585.80 761.90 L 579.90 765.70 L 573.60 769.00 L 567.00 771.90 L 560.10 774.40 L 553.00 776.30 L 545.70 777.70 L 538.20 778.60 L 530.40 778.90 L 522.60 778.60 L 515.10 777.70 L 507.80 776.30 L 500.80 774.40 L 493.80 771.90 L 487.20 769.00 L 481.00 765.70 L 475.00 761.90 L 469.30 757.70 L 464.00 753.10 L 459.20 748.20 L 454.70 742.90 L 450.60 737.20 L 447.10 731.30 L 444.00 725.20 L 441.40 718.70 L 439.30 712.10 L 437.80 705.30 L 436.90 698.20 L 436.60 690.90 L 436.90 683.60 L 437.80 676.60 L 439.30 669.70 L 441.40 663.10 L 444.00 656.60 L 447.10 650.50 L 450.60 644.60 L 454.70 639.00 L 459.20 633.70 L 464.00 628.70 L 469.30 624.10 L 475.00 619.90 L 481.00 616.10 L 487.20 612.80 L 493.80 609.90 L 500.80 607.40 L 507.80 605.50 L 515.10 604.10 L 522.60 603.20 L 530.40 602.90 L 538.20 603.20 L 545.70 604.10 L 553.00 605.50 L 560.10 607.40 L 567.00 609.90 L 573.60 612.80 L 579.90 616.10 L 585.80 619.90 L 591.50 624.10 L 596.80 628.70 L 601.70 633.70 L 606.10 639.00 L 610.20 644.60 L 613.80 650.50 L 616.90 656.60 L 619.50 663.10 L 621.50 669.70 L 623.00 676.60 L 623.90 683.60 L 624.30 690.90 Z" fill="url(#SVGID_1_)" fill-rule="nonzero" node-id="96" stroke="none" target-height="176" target-width="187.69998" target-x="436.6" target-y="602.9"></path><path d="M 707.60 390.20 L 703.80 383.40 L 700.10 377.60 L 692.70 367.70 L 686.00 360.40 L 680.00 354.60 L 671.70 347.40 L 666.90 343.90 L 658.50 339.00 L 651.80 336.70 L 648.50 336.30 L 645.30 336.40 L 642.20 337.20 L 639.90 338.30 L 634.30 341.80 L 633.10 342.30 L 630.30 342.30 L 628.70 341.80 L 626.10 339.80 L 624.50 337.70 L 619.70 329.80 L 617.50 327.00 L 612.30 322.10 L 606.40 318.20 L 603.00 316.60 L 594.30 313.50 L 596.80 314.60 L 600.70 317.10 L 605.00 321.30 L 606.90 324.00 L 608.60 327.40 L 610.00 332.70 L 610.30 337.20 L 610.00 340.50 L 601.70 333.30 L 590.90 325.70 L 584.70 322.10 L 577.80 318.60 L 570.90 315.70 L 564.30 313.40 L 557.80 311.50 L 545.10 309.00 L 539.20 308.30 L 530.40 307.80 L 522.60 307.80 L 509.00 308.90 L 499.00 310.70 L 508.30 311.10 L 513.70 311.80 L 519.90 313.00 L 526.20 314.70 L 533.10 317.20 L 539.80 320.30 L 545.50 323.40 L 554.70 329.80 L 514.30 323.20 L 501.80 321.60 L 491.10 320.70 L 481.00 320.50 L 473.60 320.80 L 463.80 321.80 L 449.50 324.30 L 441.00 326.50 L 449.20 324.30 L 454.50 323.30 L 460.80 322.70 L 469.70 322.80 L 474.50 323.40 L 479.30 324.40 L 484.20 325.90 L 489.30 327.90 L 493.10 329.80 L 499.50 333.90 L 490.00 332.20 L 481.30 331.10 L 473.50 330.50 L 465.70 330.40 L 452.30 331.30 L 440.60 333.30 L 431.60 335.80 L 425.00 338.20 L 354.70 368.50 L 348.70 370.60 L 341.30 372.30 L 335.30 372.50 L 332.40 372.00 L 329.50 371.10 L 325.70 369.40 L 322.40 367.40 L 319.40 364.90 L 314.40 359.30 L 309.80 351.80 L 307.90 347.90 L 310.10 336.00 L 312.00 329.30 L 314.70 321.80 L 319.50 311.80 L 322.60 306.50 L 327.10 300.10 L 331.90 294.20 L 337.10 288.90 L 342.70 284.00 L 348.60 279.50 L 354.70 275.40 L 361.10 271.60 L 367.70 268.30 L 376.90 264.40 L 386.20 261.00 L 395.70 258.20 L 415.00 253.80 L 424.60 252.30 L 438.80 250.50 L 465.10 248.50 L 489.10 247.60 L 501.40 247.70 L 513.20 248.20 L 524.60 249.10 L 536.20 250.50 L 557.70 254.00 L 581.30 259.40 L 593.80 263.00 L 605.30 266.80 L 627.20 275.00 L 636.60 279.10 L 642.70 283.70 L 655.00 294.30 L 665.70 305.30 L 671.00 311.40 L 676.30 318.30 L 681.70 326.00 L 686.90 334.70 L 691.40 342.90 L 695.10 350.60 L 698.50 358.60 L 703.30 372.60 L 706.00 382.40 L 707.60 390.20 Z" fill="#152140" fill-rule="nonzero" node-id="98" stroke="none" target-height="142.6" target-width="399.69998" target-x="307.9" target-y="247.6"></path><path d="M 905.40 840.80 L 894.70 853.30 L 874.50 874.70 L 856.40 891.90 L 847.30 900.00 L 830.00 914.20 L 811.90 927.90 L 798.90 937.10 L 785.50 945.80 L 771.80 954.10 L 757.80 962.00 L 743.50 969.50 L 727.80 977.20 L 702.80 987.90 L 687.80 993.70 L 672.60 998.90 L 657.20 1003.80 L 641.60 1008.10 L 625.80 1011.90 L 609.80 1015.20 L 593.60 1018.10 L 577.30 1020.40 L 560.80 1022.20 L 544.20 1023.50 L 527.30 1024.30 L 509.40 1024.50 L 487.10 1023.90 L 473.30 1023.00 L 444.40 1020.00 L 429.40 1017.80 L 414.50 1015.20 L 399.70 1012.10 L 385.20 1008.60 L 370.70 1004.60 L 356.40 1000.30 L 342.40 995.50 L 328.50 990.40 L 314.80 984.90 L 300.90 978.80 L 280.60 969.00 L 256.60 956.00 L 233.50 941.80 L 211.30 926.30 L 190.90 910.70 L 178.80 900.70 L 167.10 890.30 L 149.90 873.90 L 129.90 852.60 L 118.60 839.40 L 127.40 834.20 L 136.70 829.30 L 146.40 824.90 L 156.50 820.80 L 177.00 814.00 L 198.40 808.60 L 209.80 806.30 L 225.10 803.70 L 241.40 801.40 L 258.90 799.50 L 276.30 798.10 L 294.90 796.80 L 337.10 795.10 L 361.00 794.60 L 412.30 794.00 L 411.90 798.20 L 412.20 802.40 L 413.20 806.50 L 414.80 810.50 L 417.10 814.50 L 419.80 818.10 L 423.10 821.70 L 427.00 825.10 L 431.60 828.60 L 436.40 831.60 L 447.40 837.20 L 453.80 839.70 L 462.40 842.60 L 471.80 845.00 L 482.00 847.00 L 492.20 848.40 L 503.00 849.30 L 514.40 849.60 L 525.50 849.30 L 536.00 848.50 L 546.10 847.10 L 556.00 845.20 L 565.20 842.90 L 573.70 840.10 L 585.80 835.10 L 595.70 829.40 L 600.30 826.10 L 604.30 822.70 L 607.70 819.30 L 612.70 813.20 L 615.10 811.10 L 617.80 809.50 L 620.70 808.30 L 623.70 807.60 L 627.00 807.60 L 665.50 810.10 L 793.60 816.60 L 824.60 819.20 L 839.40 821.00 L 852.90 823.20 L 872.70 827.70 L 886.40 832.10 L 893.00 834.70 L 905.40 840.80 Z" fill="#f5b316" fill-rule="nonzero" node-id="100" stroke="none" target-height="230.5" target-width="786.80005" target-x="118.6" target-y="794"></path><path d="M 314.80 795.90 L 314.80 984.90 L 300.90 978.80 L 287.10 972.30 L 268.50 962.70 L 256.60 956.00 L 233.50 941.80 L 222.20 934.20 L 203.30 920.40 L 190.90 910.70 L 178.80 900.70 L 167.10 890.30 L 167.10 817.10 L 187.40 811.20 L 198.40 808.60 L 209.80 806.30 L 225.10 803.70 L 241.40 801.40 L 258.80 799.50 L 294.90 796.80 L 314.80 795.90 Z" fill="#005589" fill-rule="nonzero" node-id="102" stroke="none" target-height="189" target-width="147.69998" target-x="167.1" target-y="795.9"></path><path d="M 865.20 825.80 L 865.20 883.60 L 856.30 891.90 L 838.00 907.80 L 819.60 922.30 L 798.90 937.10 L 785.50 945.80 L 771.80 954.10 L 757.80 962.00 L 737.90 972.30 L 717.50 981.70 L 717.50 812.80 L 775.80 815.60 L 809.80 817.80 L 824.60 819.20 L 839.40 821.00 L 852.90 823.20 L 865.20 825.80 Z" fill="#005589" fill-rule="nonzero" node-id="104" stroke="none" target-height="168.90002" target-width="147.70001" target-x="717.5" target-y="812.8"></path><g node-id="187"><path d="M 510.20 479.70 L 505.60 490.90 L 502.90 496.00 L 496.60 505.50 L 489.40 513.80 L 481.40 520.80 L 477.20 523.70 L 468.50 528.50 L 463.90 530.30 L 459.20 531.70 L 454.60 532.70 L 449.90 533.30 L 445.20 533.40 L 440.60 533.10 L 435.90 532.20 L 431.30 530.90 L 426.80 529.10 L 422.60 527.00 L 418.70 524.40 L 415.10 521.40 L 411.70 518.10 L 408.60 514.50 L 405.80 510.60 L 401.10 501.90 L 397.70 492.30 L 396.50 487.10 L 395.20 476.50 L 395.20 465.20 L 395.80 459.60 L 398.20 448.10 L 400.00 442.20 L 402.30 436.10 L 404.90 430.30 L 407.80 424.90 L 411.00 419.90 L 414.60 415.00 L 418.40 410.60 L 422.30 406.50 L 426.50 402.80 L 431.00 399.50 L 435.50 396.60 L 440.20 394.10 L 444.90 392.10 L 450.40 390.20 L 455.90 389.00 L 461.40 388.50 L 467.00 388.60 L 473.60 392.40 L 481.10 397.30 L 488.60 402.80 L 499.70 412.30 L 510.40 423.40 L 512.20 428.90 L 513.60 434.70 L 514.60 440.80 L 515.10 447.00 L 515.10 453.30 L 514.60 459.90 L 513.70 466.40 L 512.20 473.00 L 510.20 479.70 Z" fill="#ffffff" fill-opacity="0.4" fill-rule="nonzero" group-id="3" node-id="108" stroke="none" target-height="144.90002" target-width="119.89996" target-x="395.2" target-y="388.5"></path><path d="M 517.70 442.80 L 516.70 435.90 L 515.30 429.20 L 510.40 423.40 L 504.50 417.10 L 508.20 425.60 L 510.20 432.00 L 511.50 438.70 L 512.20 445.10 L 512.40 451.70 L 512.00 458.50 L 511.00 465.20 L 509.60 471.90 L 507.60 478.70 L 505.50 484.20 L 503.10 489.50 L 497.70 499.10 L 493.40 505.00 L 488.80 510.30 L 483.90 515.00 L 480.00 518.30 L 471.80 523.60 L 463.20 527.60 L 458.80 528.90 L 454.40 529.90 L 449.90 530.50 L 445.40 530.60 L 441.00 530.30 L 436.60 529.50 L 432.20 528.30 L 428.10 526.60 L 424.20 524.60 L 420.60 522.30 L 417.20 519.60 L 413.90 516.50 L 410.40 512.20 L 407.20 507.50 L 404.30 502.20 L 401.90 496.30 L 400.20 490.80 L 399.00 485.10 L 398.20 479.30 L 397.80 473.40 L 397.90 467.40 L 398.40 461.30 L 399.40 455.20 L 400.70 449.20 L 402.60 443.10 L 404.90 437.10 L 407.50 431.40 L 410.40 426.10 L 413.70 420.90 L 417.30 416.10 L 421.20 411.70 L 425.40 407.50 L 429.80 403.80 L 434.40 400.50 L 438.90 397.80 L 443.30 395.70 L 453.20 392.40 L 458.50 391.50 L 463.70 391.20 L 468.70 391.50 L 473.60 392.40 L 461.70 385.70 L 456.90 386.10 L 452.00 387.00 L 447.10 388.30 L 442.10 390.20 L 436.80 392.70 L 431.40 395.80 L 426.40 399.40 L 421.60 403.40 L 417.10 407.80 L 413.00 412.50 L 409.10 417.60 L 405.60 423.10 L 402.40 428.90 L 399.70 434.90 L 397.30 441.30 L 395.30 447.80 L 393.80 454.20 L 392.80 460.70 L 392.30 467.20 L 392.20 473.60 L 392.60 479.90 L 393.50 486.20 L 394.80 492.20 L 396.60 498.10 L 398.70 503.40 L 401.10 508.20 L 403.80 512.70 L 406.80 516.70 L 410.00 520.50 L 413.60 523.90 L 417.50 526.90 L 421.50 529.60 L 425.80 531.80 L 430.40 533.60 L 435.70 535.10 L 441.00 535.90 L 446.30 536.20 L 451.40 535.90 L 456.50 535.20 L 461.60 534.00 L 466.70 532.20 L 471.60 530.10 L 476.30 527.50 L 481.00 524.50 L 485.60 521.00 L 489.90 517.10 L 494.00 513.00 L 497.90 508.40 L 501.50 503.40 L 504.80 498.20 L 507.80 492.70 L 510.50 486.80 L 512.90 480.50 L 514.80 474.20 L 516.30 467.90 L 517.30 461.60 L 517.80 455.20 L 518.00 448.90 L 517.70 442.80 Z" fill="#0f0f0f" fill-opacity="0.4" fill-rule="nonzero" group-id="3" node-id="110" stroke="none" target-height="150.5" target-width="125.79999" target-x="392.2" target-y="385.7"></path></g><g node-id="188"><path d="M 471.90 534.40 L 471.70 537.30 L 470.00 540.60 L 465.80 544.80 L 462.60 547.00 L 455.30 550.90 L 450.70 552.80 L 441.10 556.00 L 435.70 557.30 L 430.20 558.30 L 420.20 559.50 L 415.20 559.60 L 407.00 559.10 L 403.10 558.40 L 397.60 556.40 L 394.60 554.10 L 393.30 551.50 L 393.40 548.50 L 395.10 545.20 L 399.40 541.00 L 402.60 538.80 L 409.80 534.90 L 414.40 533.00 L 424.00 529.80 L 429.40 528.50 L 434.90 527.50 L 445.00 526.30 L 449.90 526.20 L 458.10 526.70 L 462.00 527.40 L 467.60 529.40 L 470.50 531.70 L 471.90 534.40 Z" fill="#ff8777" fill-rule="nonzero" group-id="4" node-id="115" stroke="none" target-height="33.399963" target-width="78.600006" target-x="393.3" target-y="526.2"></path></g><g node-id="189"><path d="M 522.90 444.60 L 521.10 444.50 L 519.70 444.00 L 511.50 438.80 L 463.20 404.70 L 421.60 376.20 L 418.20 373.40 L 417.50 372.40 L 417.50 371.90 L 418.00 371.40 L 419.20 371.10 L 422.10 371.20 L 426.50 372.00 L 433.10 373.70 L 440.10 376.10 L 448.50 379.40 L 461.70 385.70 L 473.60 392.40 L 481.10 397.30 L 488.60 402.80 L 499.70 412.30 L 507.60 420.30 L 511.70 424.80 L 515.20 429.20 L 520.40 436.60 L 523.10 442.00 L 523.40 443.40 L 522.90 444.60 Z" fill="#152140" fill-rule="nonzero" group-id="5" node-id="120" stroke="none" target-height="73.5" target-width="105.900024" target-x="417.5" target-y="371.1"></path></g><g node-id="190"><g node-id="196"><path d="M 470.40 459.30 L 470.20 461.80 L 469.40 464.20 L 468.30 466.40 L 466.60 468.30 L 464.70 470.00 L 462.50 471.10 L 460.10 471.90 L 457.60 472.10 L 455.00 471.90 L 452.60 471.10 L 450.40 470.00 L 448.50 468.30 L 446.90 466.40 L 445.70 464.20 L 445.00 461.80 L 444.70 459.30 L 445.00 456.70 L 445.70 454.30 L 446.90 452.10 L 448.50 450.20 L 450.40 448.60 L 452.60 447.40 L 455.00 446.70 L 457.60 446.40 L 460.10 446.70 L 462.50 447.40 L 464.70 448.60 L 466.60 450.20 L 468.30 452.10 L 469.40 454.30 L 470.20 456.70 L 470.40 459.30 Z" fill="#152140" fill-rule="nonzero" group-id="6,12" node-id="127" stroke="none" target-height="25.700012" target-width="25.699982" target-x="444.7" target-y="446.4"></path></g><path d="M 455.10 454.20 L 454.90 455.60 L 454.10 456.70 L 453.00 457.40 L 451.70 457.70 L 450.30 457.40 L 449.20 456.70 L 448.40 455.60 L 448.20 454.20 L 448.40 452.80 L 449.20 451.70 L 450.30 451.00 L 451.70 450.70 L 453.00 451.00 L 454.10 451.70 L 454.90 452.80 L 455.10 454.20 Z" fill="#ffffff" fill-rule="nonzero" group-id="6,13" node-id="132" stroke="none" target-height="7" target-width="6.899994" target-x="448.2" target-y="450.7"></path></g><g node-id="191"><path d="M 635.50 477.50 L 633.00 485.30 L 630.10 492.50 L 626.80 499.30 L 623.10 505.90 L 619.10 511.80 L 614.90 517.10 L 610.20 522.00 L 605.40 526.20 L 600.60 529.70 L 596.70 532.00 L 589.00 535.30 L 585.20 536.30 L 581.20 536.90 L 577.30 537.00 L 573.50 536.70 L 569.60 535.90 L 565.90 534.60 L 562.40 532.90 L 559.20 530.80 L 556.10 528.20 L 553.30 525.30 L 548.40 518.50 L 546.30 514.60 L 544.00 509.00 L 542.10 503.00 L 540.60 496.40 L 539.70 489.60 L 539.40 482.50 L 539.60 475.00 L 540.30 467.50 L 541.60 459.80 L 543.50 451.90 L 546.70 442.00 L 548.90 436.60 L 554.00 426.60 L 567.70 420.30 L 577.50 416.70 L 585.40 414.30 L 593.30 412.40 L 608.70 409.60 L 616.10 408.80 L 628.70 408.00 L 632.60 414.50 L 636.10 423.60 L 637.60 429.40 L 638.80 435.70 L 639.40 442.10 L 639.60 448.80 L 639.30 455.90 L 638.50 462.90 L 637.30 470.10 L 635.50 477.50 Z" fill="#ffffff" fill-opacity="0.4" fill-rule="nonzero" group-id="7" node-id="138" stroke="none" target-height="129" target-width="100.19995" target-x="539.4" target-y="408"></path><path d="M 638.70 422.50 L 636.90 417.50 L 634.70 412.40 L 632.10 407.90 L 625.40 408.10 L 629.70 414.90 L 631.50 418.90 L 633.40 424.20 L 634.90 430.00 L 636.00 436.10 L 636.60 442.50 L 636.80 449.30 L 636.50 455.90 L 635.80 462.70 L 634.50 469.70 L 632.80 476.70 L 630.40 484.20 L 627.70 491.20 L 624.50 497.80 L 621.00 504.10 L 617.20 509.70 L 613.10 514.80 L 608.70 519.60 L 604.20 523.70 L 599.60 527.10 L 595.90 529.30 L 588.60 532.50 L 585.00 533.50 L 581.30 534.10 L 577.60 534.20 L 574.00 533.90 L 570.40 533.20 L 566.90 532.00 L 563.60 530.30 L 560.50 528.30 L 557.70 525.90 L 552.70 520.10 L 548.50 512.80 L 546.30 507.50 L 544.60 501.70 L 543.30 495.40 L 542.50 488.90 L 542.20 482.10 L 542.40 474.80 L 543.10 467.60 L 544.30 460.20 L 546.20 452.60 L 548.00 446.70 L 552.70 435.10 L 558.60 424.30 L 549.50 429.00 L 546.30 435.70 L 543.40 442.90 L 540.80 451.10 L 538.80 459.30 L 537.50 467.30 L 536.80 475.10 L 536.60 482.90 L 537.10 490.30 L 538.00 497.30 L 539.60 504.20 L 541.60 510.50 L 544.10 516.30 L 546.40 520.40 L 548.90 524.20 L 551.60 527.50 L 554.50 530.50 L 557.80 533.20 L 561.20 535.40 L 564.90 537.20 L 568.80 538.60 L 573.40 539.50 L 578.00 539.80 L 582.60 539.50 L 587.10 538.70 L 591.70 537.30 L 596.30 535.30 L 600.70 532.90 L 605.00 530.00 L 609.20 526.60 L 617.30 518.40 L 621.00 513.70 L 624.60 508.70 L 627.90 503.10 L 633.60 491.40 L 636.00 485.00 L 638.20 478.20 L 641.00 465.20 L 642.30 452.30 L 642.10 439.90 L 641.30 433.80 L 640.20 428.10 L 638.70 422.50 Z" fill="#0f0f0f" fill-opacity="0.4" fill-rule="nonzero" group-id="7" node-id="140" stroke="none" target-height="131.9" target-width="105.70001" target-x="536.6" target-y="407.9"></path></g><g node-id="192"><path d="M 598.40 535.10 L 603.80 536.40 L 613.40 539.50 L 617.90 541.40 L 625.20 545.30 L 628.40 547.60 L 632.70 551.70 L 633.80 553.50 L 634.60 556.60 L 634.00 559.40 L 631.90 561.80 L 627.80 564.00 L 624.70 565.00 L 620.80 565.70 L 612.60 566.20 L 602.80 565.60 L 597.60 564.90 L 592.10 563.80 L 581.70 561.00 L 577.10 559.40 L 568.60 555.50 L 562.00 551.30 L 559.60 549.20 L 556.70 545.50 L 555.80 542.40 L 555.90 540.90 L 556.40 539.50 L 558.50 537.10 L 562.70 534.90 L 569.70 533.20 L 577.90 532.70 L 582.80 532.90 L 592.90 534.00 L 598.40 535.10 Z" fill="#ff8777" fill-rule="nonzero" group-id="8" node-id="145" stroke="none" target-height="33.5" target-width="78.79999" target-x="555.8" target-y="532.7"></path></g><g node-id="193"><path d="M 654.80 411.60 L 654.50 412.10 L 653.60 412.70 L 649.40 414.20 L 600.70 427.10 L 543.70 442.80 L 534.50 444.90 L 532.50 445.00 L 531.00 444.50 L 530.80 443.90 L 531.10 442.90 L 532.20 441.30 L 534.50 439.10 L 542.60 433.10 L 548.30 429.70 L 558.60 424.30 L 567.70 420.20 L 577.50 416.70 L 585.40 414.30 L 593.30 412.40 L 608.70 409.60 L 616.10 408.80 L 628.80 408.00 L 638.70 408.00 L 648.90 409.00 L 653.80 410.50 L 654.80 411.60 Z" fill="#152140" fill-rule="nonzero" group-id="9" node-id="150" stroke="none" target-height="37" target-width="124" target-x="530.8" target-y="408"></path></g><g node-id="194"><g node-id="198"><path d="M 602.20 470.90 L 601.40 475.40 L 600.50 477.40 L 597.60 480.70 L 593.90 482.90 L 589.40 483.70 L 584.90 482.90 L 581.10 480.70 L 578.30 477.40 L 576.70 473.20 L 576.50 470.90 L 576.70 468.50 L 577.30 466.40 L 579.50 462.60 L 582.90 459.80 L 584.90 458.80 L 587.00 458.30 L 589.40 458.00 L 591.70 458.30 L 593.90 458.80 L 597.60 461.10 L 600.50 464.40 L 601.40 466.40 L 602.00 468.50 L 602.20 470.90 Z" fill="#152140" fill-rule="nonzero" group-id="10,14" node-id="157" stroke="none" target-height="25.700012" target-width="25.700012" target-x="576.5" target-y="458"></path></g><path d="M 598.80 465.80 L 598.50 467.20 L 597.80 468.30 L 596.70 469.10 L 595.30 469.30 L 593.90 469.10 L 592.80 468.30 L 592.10 467.20 L 591.80 465.80 L 592.10 464.50 L 592.80 463.40 L 593.90 462.60 L 595.30 462.30 L 596.70 462.60 L 597.80 463.40 L 598.50 464.50 L 598.80 465.80 Z" fill="#ffffff" fill-rule="nonzero" group-id="10,15" node-id="162" stroke="none" target-height="7" target-width="7" target-x="591.8" target-y="462.3"></path></g><path d="M 545.30 601.80 L 550.90 604.40 L 556.10 607.30 L 560.90 610.50 L 565.40 614.00 L 569.50 617.90 L 573.20 622.00 L 576.50 626.20 L 579.40 630.70 L 581.80 635.50 L 583.70 640.40 L 585.10 645.40 L 586.00 650.50 L 586.30 655.00 L 585.90 663.20 L 584.80 669.10 L 583.20 674.20 L 579.20 683.10 L 575.20 689.50 L 572.50 693.10 L 568.70 697.40 L 564.70 701.20 L 560.30 704.60 L 555.70 707.60 L 550.80 710.30 L 545.80 712.50 L 540.60 714.30 L 535.30 715.70 L 529.80 716.70 L 524.40 717.40 L 518.90 717.60 L 513.40 717.40 L 508.00 716.80 L 502.70 715.80 L 497.50 714.40 L 488.90 711.10 L 482.10 707.50 L 478.10 704.90 L 473.60 701.70 L 469.30 698.00 L 465.00 693.60 L 462.40 690.50 L 457.90 683.30 L 456.10 679.30 L 454.70 675.10 L 453.70 670.60 L 453.30 665.70 L 453.40 661.20 L 454.00 656.90 L 454.90 652.60 L 457.60 644.70 L 460.10 639.20 L 465.10 629.50 L 470.40 621.50 L 474.70 616.10 L 478.70 611.70" fill="#dd5543" fill-rule="nonzero" node-id="166" stroke="none" target-height="115.79999" target-width="133" target-x="453.3" target-y="601.8"></path><path d="M 450.10 700.10 L 447.80 705.90 L 444.70 715.50 L 443.30 722.10 L 442.00 732.70 L 440.30 740.10 L 438.00 746.50 L 436.60 749.40 L 435.00 751.80 L 432.10 754.20 L 430.30 755.00 L 428.00 755.40 L 425.60 755.30 L 423.20 754.70 L 421.00 753.70 L 419.00 752.20 L 417.40 750.50 L 416.30 748.60 L 415.40 744.70 L 415.50 741.70 L 416.10 738.70 L 417.80 733.40 L 419.60 729.10 L 421.70 725.10 L 424.10 721.40 L 429.80 714.80 L 437.50 708.10 L 442.00 704.90 L 450.10 700.10 Z" fill="#ffffff" fill-rule="nonzero" node-id="168" stroke="none" target-height="55.30005" target-width="34.700012" target-x="415.4" target-y="700.1"></path><path d="M 595.00 683.80 L 599.60 687.90 L 603.00 691.50 L 605.80 695.20 L 609.90 701.30 L 613.20 705.30 L 618.30 709.80 L 620.00 710.80 L 621.90 711.40 L 623.90 711.30 L 626.80 710.10 L 629.20 707.60 L 630.40 704.60 L 630.40 702.50 L 629.80 700.50 L 627.60 697.00 L 624.90 694.30 L 620.00 690.40 L 613.30 687.10 L 605.10 684.80 L 595.00 683.80 Z" fill="#ffffff" fill-rule="nonzero" node-id="170" stroke="none" target-height="27.600037" target-width="35.400024" target-x="595" target-y="683.8"></path><path d="M 519.90 603.80 L 518.30 604.30 L 516.80 605.10 L 515.70 606.40 L 515.00 608.00 L 512.10 621.10 L 510.70 630.60 L 509.90 639.40 L 509.70 648.00 L 509.90 655.80 L 511.30 670.20 L 514.00 652.50 L 517.30 633.80 L 523.70 603.50 L 519.90 603.80 Z" fill="#ffffff" fill-rule="nonzero" node-id="172" stroke="none" target-height="66.70001" target-width="14" target-x="509.7" target-y="603.5"></path><path d="M 672.60 939.70 L 613.80 939.70 L 613.00 939.40 L 612.70 938.70 L 612.70 927.70 L 613.00 927.00 L 613.80 926.70 L 672.60 926.70 L 673.30 927.00 L 673.60 927.70 L 673.60 938.70 L 673.30 939.40 L 672.60 939.70 Z" fill="#005589" fill-rule="nonzero" node-id="174" stroke="none" target-height="13" target-width="60.899963" target-x="612.7" target-y="926.7"></path><path d="M 672.60 973.30 L 613.80 973.30 L 613.00 973.00 L 612.70 972.30 L 612.70 961.30 L 613.00 960.60 L 613.80 960.30 L 672.60 960.30 L 673.30 960.60 L 673.60 961.30 L 673.60 972.30 L 673.30 973.00 L 672.60 973.30 Z" fill="#005589" fill-rule="nonzero" node-id="176" stroke="none" target-height="13" target-width="60.899963" target-x="612.7" target-y="960.3"></path><g node-id="195"><path d="M 441.10 629.80 L 439.10 628.90 L 438.30 627.20 L 438.40 626.20 L 438.90 625.20 L 439.80 624.50 L 449.70 619.60 L 459.80 615.20 L 470.00 611.40 L 480.40 608.10 L 490.90 605.40 L 501.60 603.30 L 512.40 601.70 L 523.30 600.60 L 540.90 600.20 L 558.40 601.10 L 567.10 602.20 L 584.40 605.40 L 593.10 607.50 L 594.00 608.00 L 594.70 608.80 L 595.10 609.90 L 595.00 611.00 L 594.50 612.00 L 593.70 612.70 L 592.70 613.00 L 591.60 612.90 L 580.40 610.20 L 569.20 608.10 L 557.90 606.70 L 546.50 605.90 L 535.10 605.70 L 523.70 606.20 L 513.00 607.20 L 502.50 608.80 L 492.20 610.90 L 481.90 613.50 L 471.80 616.70 L 461.90 620.40 L 452.10 624.60 L 442.40 629.40 L 441.10 629.80 Z" fill="#dd5543" fill-rule="nonzero" group-id="11" node-id="180" stroke="none" target-height="29.599976" target-width="156.79999" target-x="438.3" target-y="600.2"></path></g><path d="M 530.50 602.70 L 519.80 600.60 L 514.80 599.40 L 510.10 597.70 L 505.70 595.70 L 501.60 593.20 L 497.70 590.30 L 494.20 587.10 L 491.00 583.60 L 488.20 579.80 L 485.70 575.70 L 483.60 571.50 L 482.00 567.00 L 480.70 562.30 L 480.00 557.60 L 479.70 552.70 L 479.90 547.80 L 482.30 533.70 L 483.40 529.80 L 484.80 526.20 L 486.70 523.00 L 489.00 520.00 L 491.60 517.40 L 494.60 515.10 L 497.80 513.20 L 501.20 511.70 L 504.80 510.70 L 508.60 510.20 L 512.40 510.10 L 516.40 510.60 L 527.60 512.80 L 533.00 514.10 L 538.10 515.90 L 542.90 518.20 L 547.40 520.90 L 551.60 524.00 L 555.40 527.50 L 558.90 531.30 L 562.00 535.50 L 564.70 539.90 L 566.90 544.50 L 568.70 549.40 L 570.00 554.50 L 570.90 559.60 L 571.20 564.90 L 571.00 570.30 L 570.20 575.80 L 569.00 580.40 L 567.30 584.50 L 565.10 588.30 L 562.40 591.80 L 559.40 594.90 L 555.90 597.50 L 552.20 599.70 L 548.20 601.40 L 544.00 602.60 L 539.60 603.20 L 535.10 603.30 L 530.50 602.70 Z" fill="url(#SVGID_2_)" fill-rule="nonzero" node-id="183" stroke="none" target-height="93.19998" target-width="91.5" target-x="479.7" target-y="510.1"></path></svg>